<?xml version="1.0" encoding="UTF-8"?> <svg xmlns="http://www.w3.org/2000/svg" xmlns:xlink="http://www.w3.org/1999/xlink" width="149px" height="36px" viewBox="0 0 149 36" version="1.1"><title>Low Impact</title><defs><polygon id="path-1" points="0 0 149 0 149 36 0 36"></polygon><polygon id="path-3" points="0 36 149 36 149 0 0 0"></polygon></defs><g id="Wireframes" stroke="none" stroke-width="1" fill="none" fill-rule="evenodd"><g id="1aa-—-The-Unwash-Menu-Copy-2" transform="translate(-1080.000000, -553.000000)"><g id="Group" transform="translate(1080.000000, 553.000000)"><g id="Group-3"><mask id="mask-2" fill="white"><use xlink:href="#path-1"></use></mask><g id="Clip-2"></g><path d="M130.987963,36 L18.0123737,36 C8.06456229,36 -0.000252525253,27.9414912 -0.000252525253,17.9995794 L-0.000252525253,17.9995794 C-0.000252525253,8.05850877 8.06456229,0 18.0123737,0 L130.987963,0 C140.935774,0 149.000589,8.05850877 149.000589,17.9995794 L149.000589,17.9995794 C149.000589,27.9414912 140.935774,36 130.987963,36" id="Fill-1" fill="#A5F1F1" mask="url(#mask-2)"></path></g><path d="M18.0532828,17.8607005 L19.934596,15.9806622 C21.2973906,14.618791 21.0574916,12.2962918 19.3891414,11.3314578 C18.5389731,10.8402084 17.5675926,10.8402084 16.7174242,11.3314578 C15.0490741,12.2962918 14.8091751,14.618791 16.1719697,15.9806622 L18.0532828,17.8607005 Z" id="Fill-4" fill="#020303"></path><path d="M20.4260101,16.4722481 L18.544697,18.3522864 L20.4260101,20.2323247 C21.7896465,21.5941959 24.1128788,21.3544594 25.078367,19.6872398 C25.5699495,18.8376475 25.5699495,17.8669253 25.078367,17.017333 C24.1128788,15.3501133 21.7888047,15.1103769 20.4260101,16.4722481" id="Fill-6" fill="#020303"></path><path d="M18.0532828,18.8435358 L16.1719697,20.7235741 C14.8091751,22.0854452 15.0490741,24.4079445 16.7174242,25.3719373 C17.5675926,25.8640279 18.5389731,25.8640279 19.3891414,25.3719373 C21.0574916,24.4079445 21.2973906,22.0854452 19.934596,20.7235741 L18.0532828,18.8435358 Z" id="Fill-8" fill="#020303"></path><path d="M15.6804714,20.2319882 L17.5617845,18.3519499 L15.6804714,16.4719116 C14.3176768,15.1100404 11.9936027,15.3497769 11.0281145,17.0169965 C10.536532,17.8665888 10.536532,18.837311 11.0281145,19.6869033 C11.9936027,21.354123 14.3176768,21.5938594 15.6804714,20.2319882" id="Fill-10" fill="#020303"></path><polygon id="Fill-12" fill="#231F20" points="37.4299663 13.7225133 39.1353535 13.7225133 39.1353535 21.8937402 42.9804714 21.8937402 42.9804714 23.4625418 37.4299663 23.4625418"></polygon><path d="M48.7771886,21.9741571 C50.5911616,21.9741571 51.9724747,20.4188144 51.9724747,18.5917705 C51.9724747,16.6713555 50.5911616,15.210225 48.7771886,15.210225 C46.9632155,15.210225 45.5827441,16.6713555 45.5827441,18.5917705 C45.5827441,20.5138678 46.9632155,21.9741571 48.7771886,21.9741571 M48.7771886,13.559829 C51.6063131,13.559829 53.7864478,15.6829684 53.7864478,18.5917705 C53.7864478,21.3651424 51.6063131,23.6253943 48.7771886,23.6253943 C45.948064,23.6253943 43.768771,21.5014137 43.768771,18.5917705 C43.768771,15.6829684 45.948064,13.559829 48.7771886,13.559829" id="Fill-14" fill="#231F20"></path><polygon id="Fill-16" fill="#231F20" points="66.9479798 13.7225133 68.7619529 13.7225133 65.8781145 23.4625418 64.0237374 23.4625418 61.8309764 16.1972662 59.5296296 23.4625418 57.6609428 23.4625418 54.9 13.7225133 56.8082492 13.7225133 58.7030303 20.7295465 60.8688552 13.7225133 62.873064 13.7225133 65.0388889 20.7295465"></polygon><mask id="mask-4" fill="white"><use xlink:href="#path-3"></use></mask><g id="Clip-19"></g><polygon id="Fill-18" fill="#231F20" mask="url(#mask-4)" points="74.6456229 23.4630465 76.3510101 23.4630465 76.3510101 13.723018 74.6456229 13.723018"></polygon><polygon id="Fill-20" fill="#231F20" mask="url(#mask-4)" points="83.8792088 18.7409117 86.7899832 13.7224291 88.8211279 13.7224291 88.8211279 23.4624576 87.114899 23.4624576 87.114899 16.3056943 84.4482323 20.8379746 83.162037 20.8379746 80.5761785 16.2787765 80.5761785 23.4624576 78.9793771 23.4624576 78.9793771 13.7224291 81.0096801 13.7224291"></polygon><path d="M93.1565657,15.2915672 L93.1565657,18.1591513 L95.0244108,18.1591513 C96.0942761,18.1591513 96.6767677,17.5913545 96.6767677,16.7257798 C96.6767677,15.8602052 96.1077441,15.2915672 95.1052189,15.2915672 L93.1565657,15.2915672 Z M93.1565657,19.7287941 L93.1565657,23.4627941 L91.4511785,23.4627941 L91.4511785,13.7227656 L95.1599327,13.7227656 C97.2853535,13.7227656 98.489899,14.9534126 98.489899,16.7257798 C98.489899,18.4981471 97.2853535,19.7287941 95.0244108,19.7287941 L93.1565657,19.7287941 Z" id="Fill-21" fill="#231F20" mask="url(#mask-4)"></path><path d="M101.6883,19.7833026 L104.599074,19.7833026 L103.163889,16.0089259 L101.6883,19.7833026 Z M98.4938552,23.4626259 L102.365909,13.7225974 L104.071296,13.7225974 L107.848232,23.4626259 L106.007323,23.4626259 L105.195034,21.3251863 L101.078872,21.3251863 L100.253956,23.4626259 L98.4938552,23.4626259 Z" id="Fill-22" fill="#231F20" mask="url(#mask-4)"></path><path d="M108.799579,18.592191 C108.799579,15.683389 111.020118,13.5602496 113.807997,13.5602496 C116.082407,13.5602496 117.409848,14.7227609 118.073148,16.1569736 L116.529377,17.0233895 C115.946886,15.9407902 115.095034,15.2098044 113.807997,15.2098044 C111.994024,15.2098044 110.62702,16.6717761 110.62702,18.592191 C110.62702,20.5134472 111.994024,21.9745777 113.807997,21.9745777 C115.201936,21.9745777 116.095875,21.2032152 116.610185,19.9448092 L118.221296,20.6076594 C117.639646,22.35395 116.164057,23.6249737 113.807997,23.6249737 C110.978872,23.6249737 108.799579,21.5009931 108.799579,18.592191" id="Fill-23" fill="#231F20" mask="url(#mask-4)"></path><polygon id="Fill-24" fill="#231F20" mask="url(#mask-4)" points="124.250337 23.4626259 122.544949 23.4626259 122.544949 15.2913989 119.606397 15.2913989 119.606397 13.7225974 127.188047 13.7225974 127.188047 15.2913989 124.250337 15.2913989"></polygon></g></g></g></svg> 