<?xml version="1.0" encoding="UTF-8"?> <svg xmlns="http://www.w3.org/2000/svg" xmlns:xlink="http://www.w3.org/1999/xlink" width="294" height="53" viewBox="0 0 294 53"><defs><clipPath id="clip-path"><path id="Clip_2" data-name="Clip 2" d="M0,0H206.453V53H0Z" fill="none"></path></clipPath></defs><g id="Group_6" data-name="Group 6" transform="translate(0)"><g id="Group_3" data-name="Group 3" transform="translate(87.547)"><path id="Clip_2-2" data-name="Clip 2" d="M0,0H206.453V53H0Z" fill="none"></path><g id="Group_3-2" data-name="Group 3" clip-path="url(#clip-path)"><path id="Fill_1" data-name="Fill 1" d="M152.261,53c-5.235,0-9.057-3.485-9.735-8.878l-.044-.353-.225.278c-3.229,4-7.748,8.761-10.939,8.761a3.42,3.42,0,0,1-3.053-1.423,6.732,6.732,0,0,1-.71-4.349,17.817,17.817,0,0,1,1.147-4.618,43,43,0,0,1-5.264,6.5c-2.481,2.579-4.919,3.886-7.247,3.886-3.982,0-5.765-3.441-5.765-6.852,0-2.334,1-5.787,2.744-9.473l.238-.5-.461.315a3.577,3.577,0,0,1-1.76.559,2.163,2.163,0,0,1-.39-.035,4.127,4.127,0,0,1-1.762-.722l-.145-.122-.087.167c-.735,1.4-1.406,2.7-1.409,2.719l-.059.076c-3.857,5.994-9.6,13.964-14.948,13.964-3.749,0-4.308-3.572-4.308-5.7a15.587,15.587,0,0,1,.577-4.088l.039-.151-.018.023a46.332,46.332,0,0,1-5.937,6.347C80,51.7,77.663,52.9,75.806,52.9c-3.834,0-4.406-3.812-4.406-6.084a18.353,18.353,0,0,1,1.028-5.073l.28-.888-.548.757c-5.381,7.427-9.9,11.193-13.42,11.193-2.861,0-4.406-2.69-4.406-5.222,0-2.952,1.461-5.892,3.039-8.629a38.653,38.653,0,0,1,3.388-6.551c1.7-2.84,3.312-5.522,3.312-7.818,0-1.3-.637-2.068-1.7-2.068-3.974,0-8.108,6.708-9.739,10.255L47.219,44.5c-1.266,2.757-2.512,5.472-3.086,6.724l-.289.63H35.6l4.6-10.082-.816,1.069c-.488.639-.98,1.314-1.456,1.967-2.908,3.988-5.914,8.111-10.662,8.112-.142,0-.286,0-.429-.011a5.123,5.123,0,0,1-2.93-1.114,4.621,4.621,0,0,1-1.529-4.016,14.305,14.305,0,0,1,1.6-4.875,23.4,23.4,0,0,1-5.075,6.018A16.856,16.856,0,0,1,7.921,52.96c-.472,0-.955-.019-1.435-.056a6.128,6.128,0,0,1-4.41-2.189c-1.882-2.256-2.269-5.8-2-8.369.758-7.313,6.021-15.622,11.11-23.658,1.023-1.615,2.081-3.285,3.067-4.9A13.281,13.281,0,0,0,16.317,8.01,8.763,8.763,0,0,0,15.652,3.8,8.864,8.864,0,0,0,13.046.358H31.29a16.931,16.931,0,0,0-2.838,2.609,47.023,47.023,0,0,0-6.612,9.763c-1.6,3.04-6.455,12.724-6.5,12.821-1.595,3.3-2,6.371-1.089,8.22a3.661,3.661,0,0,0,2.715,1.965,4.965,4.965,0,0,0,1,.1c2.471,0,5.122-1.87,8.1-5.716,2.9-3.746,6.244-9.533,10.214-17.693A42.936,42.936,0,0,0,39.94,2.824,5.266,5.266,0,0,0,40.091.437L56.718.358a19.741,19.741,0,0,0-4.48,2.5,26.35,26.35,0,0,0-8.009,9.419c-6.6,12.957-9.182,20.812-7.659,23.345a1.936,1.936,0,0,0,1.752.916h.061c2.188,0,4.584-2.047,7.122-6.085l5.23-11.468h8.2l-3.16,6.6.9-1.19c2.445-3.226,7.142-6.654,11.03-6.654,2.841,0,4.406,1.377,4.406,3.878,0,2.671-1.24,5.119-2.334,7.279-.944,1.865-1.836,3.627-1.836,5.286a2.094,2.094,0,0,0,2.091,2.356c3,0,6.088-4.292,6.962-5.607,1.287-3.1,2.719-6.2,3.87-8.692.583-1.263,1.085-2.351,1.484-3.253h8.1c-.314.669-.758,1.569-1.228,2.521-2.026,4.1-5.087,10.3-5.087,12.675a2.137,2.137,0,0,0,2.381,2.356c1.411,0,3.014-.952,4.766-2.83l.032-.05c1.557-4.214,3.485-8.415,5.35-12.478q.5-1.1,1.005-2.2h8.2c-.311.664-.755,1.563-1.225,2.514l0,0c-2.026,4.1-5.088,10.3-5.088,12.677a2.137,2.137,0,0,0,2.381,2.356c1.6,0,3.383-1.146,5.449-3.5l.044-.051-.009-.067a32.06,32.06,0,0,1-.289-4.2c0-3.138,1.427-10.018,5.666-10.018,1.89,0,2.563,1.756,2.563,3.4,0,3.271-2.275,7.072-4.733,10.692-.17.279-.458.794-.878,1.577l-.041.076.048.074a1.6,1.6,0,0,0,1.393.776c1.869,0,2.688-1.29,3.636-2.783.232-.365.471-.742.75-1.145,3.448-6.543,10.04-13.145,16.992-13.145,2.389,0,4.043,1.3,4.213,3.315l.045.534,1.558-3.082h7.906l-.318.642-.12.241c-1.984,4-5.678,11.433-5.678,14.506a2.157,2.157,0,0,0,2.092,2.164,4.686,4.686,0,0,0,2.615-1l.052-.037.01-.062c.977-5.981,4.316-8.113,7.115-8.113a3.448,3.448,0,0,1,.464.047,3.805,3.805,0,0,0,.507.05h.067l.045-.049c1.667-1.786,10.287-10.695,16.277-10.695.937,0,1.981.648,1.981,1.577,0,1.907-1.962,2.056-2.563,2.056a2.6,2.6,0,0,1-.825-.087l-.13-.044-.056.125a13.435,13.435,0,0,0-.886,5.528c0,.829.025,1.662.049,2.467v.053c.024.79.046,1.536.046,2.276a19.068,19.068,0,0,1-.863,6.661l-.175.456.4-.28a25.387,25.387,0,0,0,6.288-6.9l2.486-5.5,2-4.546c.565-1.272,1.172-2.574,1.8-3.868L186.467,0h8.1L183.745,24.093l-.087.634L184,24.3c3.146-3.982,8.645-6.656,11.808-6.656A4.061,4.061,0,0,1,200.113,22c0,2.669-1.3,5-2.44,7.058-.989,1.78-1.923,3.462-1.923,5.124,0,1.475.746,2.356,1.994,2.356,1.31,0,2.79-.82,4.4-2.438a22.454,22.454,0,0,0,3.22-4.222l1.089.616-.07.111-.043.073c-4.44,7.539-8.211,12.99-11.527,16.664a24.158,24.158,0,0,1-4.589,4.109,7.307,7.307,0,0,1-3.869,1.359c-2.941,0-4.7-2.06-4.7-5.51,0-4.088,3.329-9.687,4.76-11.905.584-.982,1.223-1.953,1.841-2.892l.036-.055c1.845-2.8,3.587-5.448,3.587-7.858,0-1.3-.637-2.068-1.7-2.068-5.181,0-9.263,8.223-10.029,9.871l-4.475,9.8-4.354,9.655h-8.2l4.332-9.835-.748.957C163.132,47.546,157.726,53,152.261,53Zm13.883-33.827-.621.292a31.809,31.809,0,0,0-10.915,8.676l-.077.1.084.094A4.831,4.831,0,0,1,155.74,31.5a5.091,5.091,0,0,1-2.547,4.189l-.079.049.008.092a1.971,1.971,0,0,0,.307.877l.03.048a2.629,2.629,0,0,0,2.142,1.13c4.224,0,5.852-5.82,7.288-10.954.835-2.986,1.624-5.807,2.816-7.229ZM133.2,20.314c-2.191,0-4.632,1.821-6.7,5-1.769,2.721-2.957,5.978-2.957,8.1,0,1.376.819,3.411,2.577,3.411,2.988,0,5.419-3.223,6.6-5.144,1.71-2.774,2.858-6.087,2.858-8.243C135.584,21.885,134.766,20.314,133.2,20.314Z" fill="#231f20"></path></g></g><path id="Fill_4" data-name="Fill 4" d="M58.31,53c-4.648,0-7.423-3.074-7.423-8.224a15.446,15.446,0,0,1,.274-2.821l.123-.658-.4.543C47.173,46.931,41.821,53,37.431,53c-2.945,0-4.7-2.067-4.7-5.53,0-3.912,3.643-10.124,4.759-11.934.6-1.019,1.257-2.012,1.888-2.972,1.847-2.811,3.592-5.466,3.592-7.887,0-1.3-.638-2.076-1.706-2.076-5.191,0-9.277,8.254-10.044,9.908L29.307,36.7l-.079.192c-.765,1.671-6.291,13.788-6.908,15.142H14.161l4.307-9.8-.767,1C12.736,49.717,8.33,53,4.606,53,.8,53,0,49.993,0,47.471A22.68,22.68,0,0,1,2.316,38.39l2.905-6.1,4.907-10.942h-3.3l1.037-2.314A19.849,19.849,0,0,0,22.512,8.945h1.327L19.274,19.053h4.46l-1.116,2.3H18.242L14.516,30a9.188,9.188,0,0,0-.987,3.918c0,1.736.859,2.653,2.483,2.653,2.563,0,5.574-2.666,7.421-5.307l2.754-6.1L28.193,20.6c.561-1.265,1.168-2.572,1.805-3.883L37.542,0h8.116L34.817,24.18l-.084.631.336-.426c3.15-4,8.658-6.681,11.826-6.681a4.071,4.071,0,0,1,4.315,4.374c0,2.673-1.3,5.012-2.439,7.076l0,.008c-.99,1.785-1.926,3.471-1.926,5.142,0,1.481.747,2.365,2,2.365,2.564,0,5.164-3.088,6.485-4.929,4.531-9.277,12.82-14.131,18.666-14.131,2.641,0,4.218,1.455,4.218,3.892,0,6.616-10.239,11.257-15.5,11.787l-.137.013v.136a4.5,4.5,0,0,0,4.716,4.579c5.53,0,9.8-2.628,13.068-8.033l1.094.62-.1.159.006,0C72.425,44.967,66.952,53,58.31,53ZM70.1,19.906a4.616,4.616,0,0,0-3.194,1.65c-2.532,2.583-4.412,7.527-4.339,10.058l.005.178.176-.035a12.706,12.706,0,0,0,6-3.409,8.888,8.888,0,0,0,3.056-6.076C71.81,21.625,71.81,19.906,70.1,19.906Z" fill="#231f20"></path></g></svg> 