<?xml version="1.0" encoding="UTF-8" standalone="no"?>
<svg
   enable-background="new 0 0 32 32"
   height="32px"
   version="1.1"
   viewBox="0 0 32 32"
   width="32px"
   xml:space="preserve"
   id="svg8"
   sodipodi:docname="telegram1.svg"
   inkscape:version="1.4 (86a8ad7, 2024-10-11)"
   xmlns:inkscape="http://www.inkscape.org/namespaces/inkscape"
   xmlns:sodipodi="http://sodipodi.sourceforge.net/DTD/sodipodi-0.dtd"
   xmlns="http://www.w3.org/2000/svg"
   xmlns:svg="http://www.w3.org/2000/svg"><defs
     id="defs8" /><sodipodi:namedview
     id="namedview8"
     pagecolor="#ffffff"
     bordercolor="#000000"
     borderopacity="0.25"
     inkscape:showpageshadow="2"
     inkscape:pageopacity="0.0"
     inkscape:pagecheckerboard="0"
     inkscape:deskcolor="#d1d1d1"
     showgrid="false"
     inkscape:zoom="26.71875"
     inkscape:cx="16"
     inkscape:cy="16"
     inkscape:window-width="1858"
     inkscape:window-height="1057"
     inkscape:window-x="54"
     inkscape:window-y="-8"
     inkscape:window-maximized="1"
     inkscape:current-layer="telegram" /><g
     id="telegram"><g
       id="g1"
       style="stroke:#000000;stroke-opacity:1;stroke-width:0.37795276;stroke-dasharray:none"><path
         d="m 24.687,30.163 c -0.402,0 -0.843,-0.132 -1.32,-0.395 0,0 -9.619693,-7.108108 -9.680193,-7.152608 -0.0605,-0.0445 -0.158073,-0.190572 -0.165573,-0.340573 -0.0075,-0.150001 -0.0033,-0.420354 0.05272,-0.470854 0.056,-0.0505 11.972608,-12.1512574 11.972608,-12.1512574 0.205,-0.185 0.521,-0.169 0.706,0.037 0.185,0.205 0.168,0.5210004 -0.037,0.7060004 L 14.624099,22.025684 23.905,28.928 c 0.271,0.145 0.729,0.329 1.055,0.178 0.332,-0.152 0.496,-0.637 0.576,-1.017 L 29.911,7.472 C 30.081,6.791 29.999,6.243 29.696,5.991 29.465,5.799 29.121,5.785 28.749,5.953 L 3.033,15.871 C 2.244,16.188 1.996,16.514 2,16.622 c 0.003,0.071 0.173,0.267 0.68,0.422 l 6.375,1.99 6.999,-4.416 c 0.234,-0.146 0.542,-0.077 0.689,0.156 0.147,0.233 0.078,0.542 -0.156,0.689 L 9.393,20.002 C 9.269,20.08 9.116,20.1 8.977,20.057 L 2.385,17.999 C 1.215,17.641 1.015,17.009 1.001,16.664 0.981,16.191 1.254,15.507 2.668,14.941 L 28.363,5.033 c 0.697,-0.318 1.445,-0.25 1.974,0.191 0.613,0.511 0.813,1.413 0.549,2.474 l -4.371,20.598 c -0.184,0.878 -0.566,1.457 -1.137,1.719 -0.215,0.099 -0.445,0.148 -0.691,0.148 z"
         fill="#000000"
         id="path1"
         sodipodi:nodetypes="sczzzcccccccccccccccscccccccccccs"
         style="stroke:#000000;stroke-opacity:1;stroke-width:0.37795276;stroke-dasharray:none" /></g><path
       d="m 24.687,30.163 c -0.402,0 -0.843,-0.132 -1.32,-0.395 l -6.72,-4.959 c -0.222,-0.164 -0.27,-0.478 -0.105,-0.699 0.164,-0.222 0.478,-0.27 0.699,-0.105 l 6.664,4.923 c 0.271,0.145 0.729,0.329 1.055,0.178 0.332,-0.152 0.496,-0.637 0.576,-1.017 L 29.911,7.472 C 30.081,6.791 29.999,6.243 29.696,5.991 29.465,5.799 29.121,5.785 28.749,5.953 L 3.033,15.871 C 2.244,16.188 1.996,16.514 2,16.622 c 0.003,0.071 0.173,0.267 0.68,0.422 l 6.594,2.058 c 0.158,0.049 0.281,0.174 0.33,0.332 l 2.267,7.461 c 0.061,0.167 0.108,0.333 0.149,0.477 0.032,0.114 0.146854,0.218573 0.173854,0.260573 -0.004,-0.005 0.0011,0.05643 0.214146,0.05743 0.447,0 0.617,-0.167 0.957,-0.498 l 1.66,-1.614 c 0.198,-0.194 0.476573,-8.66e-4 0.669573,0.197135 0.192,0.198 0.262854,0.627281 0.06485,0.819281 l -1.519719,1.510146 c -0.402,0.393 -0.902854,0.958708 -1.756854,0.958708 -0.98,0 -1.55227,-0.621135 -1.72527,-1.233135 -0.035,-0.124 -0.112427,-0.192147 -0.172427,-0.357147 L 8.2374503,20.015427 2.385,17.999 C 1.215,17.641 1.015,17.009 1.001,16.664 0.981,16.191 1.254,15.507 2.668,14.941 L 28.363,5.033 c 0.697,-0.318 1.445,-0.25 1.974,0.191 0.613,0.511 0.813,1.413 0.549,2.474 l -4.371,20.598 c -0.184,0.878 -0.566,1.457 -1.137,1.719 -0.215,0.099 -0.445,0.148 -0.691,0.148 z"
       fill="#000000"
       id="path2"
       sodipodi:nodetypes="sccccccccccccccccccccccccscccccccccccs" /><g
       id="g8"
       style="stroke-width:0.37795276;stroke-dasharray:none;fill:#000000;fill-opacity:1;stroke:#000000;stroke-opacity:1"><g
         id="g7"
         style="stroke-width:0.37795276;stroke-dasharray:none;fill:#000000;fill-opacity:1;stroke:#000000;stroke-opacity:1"><g
           id="g6"
           style="stroke-width:0.37795276;stroke-dasharray:none;fill:#000000;fill-opacity:1;stroke:#000000;stroke-opacity:1"><g
             id="g5"
             style="stroke-width:0.37795276;stroke-dasharray:none;fill:#000000;fill-opacity:1;stroke:#000000;stroke-opacity:1"><g
               id="g4"
               style="stroke-width:0.37795276;stroke-dasharray:none;fill:#000000;fill-opacity:1;stroke:#000000;stroke-opacity:1"><g
                 id="g3"
                 style="stroke-width:0.37795276;stroke-dasharray:none;fill:#000000;fill-opacity:1;stroke:#000000;stroke-opacity:1"><path
                   d="M18.5,14c0,0.275-0.225,0.5-0.5,0.5l0,0c-0.275,0-0.5-0.225-0.5-0.5l0,0c0-0.275,0.225-0.5,0.5-0.5         l0,0C18.275,13.5,18.5,13.725,18.5,14L18.5,14z"
                   fill="#000"
                   id="path3"
                   style="stroke-width:0.37795276;stroke-dasharray:none;fill:#000000;fill-opacity:1;stroke:#000000;stroke-opacity:1" /></g></g></g></g></g></g></g></svg>
