<?xml version="1.0" encoding="UTF-8" standalone="no"?>
<!-- Generator: Adobe Illustrator 16.0.0, SVG Export Plug-In . SVG Version: 6.00 Build 0)  -->

<svg
   version="1.1"
   id="Capa_1"
   x="0px"
   y="0px"
   width="90px"
   height="90px"
   viewBox="0 0 90 90"
   style="enable-background:new 0 0 90 90;"
   xml:space="preserve"
   sodipodi:docname="whatsapp.svg"
   inkscape:version="1.4 (86a8ad7, 2024-10-11)"
   xmlns:inkscape="http://www.inkscape.org/namespaces/inkscape"
   xmlns:sodipodi="http://sodipodi.sourceforge.net/DTD/sodipodi-0.dtd"
   xmlns="http://www.w3.org/2000/svg"
   xmlns:svg="http://www.w3.org/2000/svg"><defs
   id="defs16" /><sodipodi:namedview
   id="namedview16"
   pagecolor="#ffffff"
   bordercolor="#000000"
   borderopacity="0.25"
   inkscape:showpageshadow="2"
   inkscape:pageopacity="0.0"
   inkscape:pagecheckerboard="0"
   inkscape:deskcolor="#d1d1d1"
   showgrid="false"
   inkscape:zoom="9.5"
   inkscape:cx="45"
   inkscape:cy="45"
   inkscape:window-width="1858"
   inkscape:window-height="1057"
   inkscape:window-x="54"
   inkscape:window-y="-8"
   inkscape:window-maximized="1"
   inkscape:current-layer="g1" />
<g
   id="g1">
	<path
   id="WhatsApp"
   d="m 90,43.841 c 0,24.213 -19.779,43.841 -44.182,43.841 -7.747,0 -15.025,-1.98 -21.357,-5.455 L 0,90 7.975,66.478 C 3.952,59.872 1.635,52.124 1.635,43.841 1.635,19.628 21.416,0 45.818,0 70.223,0 90,19.628 90,43.841 Z M 45.818,5.7188421 C 25.334,5.7188421 7.4088421,23.517 7.4088421,43.841 c 0,8.065 2.9447899,16.060316 7.3917899,22.136316 L 9.3175263,81.034737 25.171474,75.866158 c 5.865,3.851 13.101526,6.097 20.647526,6.097 20.481,0 38.198632,-17.690895 38.198632,-38.014895 C 84.017632,23.624263 66.301,5.7188421 45.818,5.7188421 Z M 68.129,53.938 c -0.273,-0.447 -0.994,-0.717 -2.076,-1.254 -1.084,-0.537 -6.41,-3.138 -7.4,-3.495 -0.993,-0.358 -1.717,-0.538 -2.438,0.537 -0.721,1.076 -2.797,3.495 -3.43,4.212 -0.632,0.719 -1.263,0.809 -2.347,0.271 -1.082,-0.537 -4.571,-1.673 -8.708,-5.333 -3.219,-2.848 -5.393,-6.364 -6.025,-7.441 -0.631,-1.075 -0.066,-1.656 0.475,-2.191 0.488,-0.482 1.084,-1.255 1.625,-1.882 0.543,-0.628 0.723,-1.075 1.082,-1.793 0.363,-0.717 0.182,-1.344 -0.09,-1.883 -0.27,-0.537 -2.438,-5.825 -3.34,-7.977 -0.902,-2.15 -1.803,-1.792 -2.436,-1.792 -0.631,0 -1.354,-0.09 -2.076,-0.09 -0.722,0 -1.896,0.269 -2.889,1.344 -0.992,1.076 -3.789,3.676 -3.789,8.963 0,5.288 3.879,10.397 4.422,11.113 0.541,0.716 7.49,11.92 18.5,16.223 11.011,4.301 11.011,2.866 12.997,2.686 1.984,-0.179 6.406,-2.599 7.312,-5.107 0.9,-2.512 0.9,-4.663 0.631,-5.111 z"
   sodipodi:nodetypes="sscccssssscccssscccccscccccccsscsccccc" />
</g>
<g
   id="g2">
</g>
<g
   id="g3">
</g>
<g
   id="g4">
</g>
<g
   id="g5">
</g>
<g
   id="g6">
</g>
<g
   id="g7">
</g>
<g
   id="g8">
</g>
<g
   id="g9">
</g>
<g
   id="g10">
</g>
<g
   id="g11">
</g>
<g
   id="g12">
</g>
<g
   id="g13">
</g>
<g
   id="g14">
</g>
<g
   id="g15">
</g>
<g
   id="g16">
</g>
</svg>
