<?xml version="1.0" encoding="UTF-8"?> <svg xmlns="http://www.w3.org/2000/svg" xmlns:xlink="http://www.w3.org/1999/xlink" width="220px" height="36px" viewBox="0 0 220 36" version="1.1"><title>Zero Waste</title><defs><polygon id="path-1" points="0 0 220 0 220 36 0 36"></polygon></defs><g id="Wireframes" stroke="none" stroke-width="1" fill="none" fill-rule="evenodd"><g id="1aa-—-The-Unwash-Menu-Copy-2" transform="translate(-1080.000000, -192.000000)"><g id="Group" transform="translate(1080.000000, 192.000000)"><g id="Group-3"><mask id="mask-2" fill="white"><use xlink:href="#path-1"></use></mask><g id="Clip-2"></g><path d="M202.034963,36 L17.9652044,36 C8.04339713,36 -0.000335820184,27.9414912 -0.000335820184,17.9995794 L-0.000335820184,17.9995794 C-0.000335820184,8.05850877 8.04339713,0 17.9652044,0 L202.034963,0 C211.956771,0 220.000504,8.05850877 220.000504,17.9995794 L220.000504,17.9995794 C220.000504,27.9414912 211.956771,36 202.034963,36" id="Fill-1" fill="#FF9C88" mask="url(#mask-2)"></path></g><path d="M19.0873476,14.623754 C19.0873476,15.0401383 19.327459,15.1368741 19.618783,14.8441433 L22.3515198,12.1069421 C22.5966685,11.8604762 22.9946154,11.8604762 23.2406037,12.1061009 L23.8593524,12.7268921 C24.1070198,12.9741991 24.1045011,13.3712363 23.8593524,13.6177022 L21.1266157,16.3549034 C20.8336125,16.6493165 20.9343586,16.8882118 21.3474174,16.8882118 L25.2110286,16.8882118 C25.5586025,16.8882118 25.8398519,17.1700072 25.8398519,17.5174148 L25.8398519,18.394766 C25.8398519,18.7455382 25.5586025,19.0248102 25.2110286,19.0248102 L21.3474174,19.0248102 C20.93184,19.0248102 20.8352916,19.2645466 21.1266157,19.5572774 L23.8593524,22.2944786 C24.1045011,22.5409445 24.1053407,22.939664 23.8593524,23.1852887 L23.2406037,23.8060799 C22.9929363,24.0533869 22.5966685,24.0517046 22.3515198,23.8052387 L19.618783,21.0680375 C19.3257799,20.7736243 19.0873476,20.8754072 19.0873476,21.2884268 L19.0873476,25.1595392 C19.0873476,25.5086291 18.8060982,25.7904246 18.4593638,25.7904246 L17.5828732,25.7904246 C17.2336202,25.7904246 16.9548894,25.5077879 16.9548894,25.1595392 L16.9548894,21.2884268 C16.9548894,20.8728836 16.714778,20.7761479 16.423454,21.0680375 L13.6907172,23.8052387 C13.4455685,24.0517046 13.0476216,24.0517046 12.8016333,23.8060799 L12.1828846,23.1852887 C11.9352172,22.9379816 11.9377359,22.5409445 12.1828846,22.2944786 L14.9156214,19.5572774 C15.2086245,19.2628642 15.1078784,19.0248102 14.6948196,19.0248102 L10.8312084,19.0248102 C10.4836345,19.0248102 10.2023851,18.7430147 10.2023851,18.394766 L10.2023851,17.5174148 C10.2023851,17.1674837 10.4836345,16.8882118 10.8312084,16.8882118 L14.6948196,16.8882118 C15.1103971,16.8882118 15.2069454,16.6476342 14.9156214,16.3549034 L12.1828846,13.6177022 C11.9377359,13.3712363 11.9368963,12.9725168 12.1828846,12.7268921 L12.8016333,12.1061009 C13.0493007,11.8587938 13.4455685,11.8604762 13.6907172,12.1069421 L16.423454,14.8441433 C16.7164571,15.1385564 16.9548894,15.0367736 16.9548894,14.623754 L16.9548894,10.7526415 C16.9548894,10.4043928 17.2361388,10.1217562 17.5828732,10.1217562 L18.4593638,10.1217562 C18.8086168,10.1217562 19.0873476,10.4043928 19.0873476,10.7526415 L19.0873476,14.623754 Z" id="Fill-4" fill="#020303"></path><polygon id="Fill-6" fill="#231F20" points="37.1566563 13.3475991 44.663077 13.3475991 44.663077 14.8364885 39.2085176 21.5196673 44.9342518 21.5196673 44.9342518 23.0884688 36.7914518 23.0884688 36.7914518 21.7627684 42.3820184 14.9172419 37.1566563 14.9172419"></polygon><polygon id="Fill-8" fill="#231F20" points="46.9631933 13.3475991 52.6343567 13.3475991 52.6343567 14.9172419 48.6641226 14.9172419 48.6641226 17.2178704 52.4991891 17.2178704 52.4991891 18.786672 48.6641226 18.786672 48.6641226 21.5196673 52.7686848 21.5196673 52.7686848 23.0884688 46.9631933 23.0884688"></polygon><path d="M56.7410178,14.9174101 L56.7410178,17.5006753 L58.441947,17.5006753 C59.414986,17.5006753 59.9271118,16.9875552 59.9271118,16.2161927 C59.9271118,15.4313714 59.414986,14.9174101 58.5233834,14.9174101 L56.7410178,14.9174101 Z M56.7410178,19.070318 L56.7410178,23.0886371 L55.0400885,23.0886371 L55.0400885,13.3477674 L58.5779542,13.3477674 C60.6029499,13.3477674 61.736343,14.5245788 61.736343,16.2161927 C61.736343,17.3795453 61.2233777,18.2182022 59.8733805,18.7590812 L62.0872751,23.0886371 L60.1168502,23.0886371 L58.1581789,19.070318 L56.7410178,19.070318 Z" id="Fill-10" fill="#231F20"></path><path d="M68.6529795,21.6 C70.4622107,21.6 71.839913,20.0446573 71.839913,18.2176134 C71.839913,16.2971984 70.4622107,14.8360679 68.6529795,14.8360679 C66.8437482,14.8360679 65.4668855,16.2971984 65.4668855,18.2176134 C65.4668855,20.1397107 66.8437482,21.6 68.6529795,21.6 M68.6529795,13.1856719 C71.4747085,13.1856719 73.6491442,15.3088114 73.6491442,18.2176134 C73.6491442,20.9909853 71.4747085,23.2512372 68.6529795,23.2512372 C65.8312504,23.2512372 63.6576542,21.1272566 63.6576542,18.2176134 C63.6576542,15.3088114 65.8312504,13.1856719 68.6529795,13.1856719" id="Fill-12" fill="#231F20"></path><polygon id="Fill-14" fill="#231F20" points="91.1002919 13.3475991 92.9095232 13.3475991 90.0332233 23.0884688 88.1836936 23.0884688 85.9966647 15.8231932 83.7013337 23.0884688 81.8375317 23.0884688 79.0838062 13.3475991 80.9870671 13.3475991 82.8768952 20.3554735 85.0370585 13.3475991 87.0360282 13.3475991 89.1961915 20.3554735"></polygon><path d="M95.9924364,19.4083884 L98.8956019,19.4083884 L97.4641684,15.6348529 L95.9924364,19.4083884 Z M92.8063424,23.0885529 L96.6682745,13.3476832 L98.3692038,13.3476832 L102.136267,23.0885529 L100.30017,23.0885529 L99.4900036,20.9511134 L95.3846019,20.9511134 L94.5618424,23.0885529 L92.8063424,23.0885529 Z" id="Fill-16" fill="#231F20"></path><path d="M108.17658,17.7038204 C108.784415,17.9334626 109.243649,18.2455406 109.581148,18.6106129 C109.999244,19.0707386 110.256147,19.6654532 110.256147,20.5041101 C110.256147,22.0199173 109.068183,23.2514055 106.947478,23.2514055 C104.705879,23.2514055 103.585079,22.1141295 103.113252,20.6126224 L104.732744,19.8950955 C105.097949,20.9785359 105.692351,21.6001682 106.947478,21.6001682 C107.879379,21.6001682 108.460348,21.2081781 108.460348,20.5310279 C108.460348,19.9093955 108.162308,19.5308643 107.312683,19.2053275 L105.313713,18.4348062 C104.058585,17.9477627 103.477616,17.0948057 103.477616,15.9861299 C103.477616,14.429946 104.720151,13.1858401 106.556248,13.1858401 C108.365479,13.1858401 109.29738,14.0917915 109.823778,15.282903 L108.284882,16.0534243 C107.852514,15.2416852 107.325276,14.8362362 106.542815,14.8362362 C105.718377,14.8362362 105.246549,15.3232797 105.246549,15.8641587 C105.246549,16.3789611 105.557183,16.6758978 106.083581,16.8794635 L108.17658,17.7038204 Z" id="Fill-18" fill="#231F20"></path><polygon id="Fill-20" fill="#231F20" points="116.132664 23.0885529 114.431735 23.0885529 114.431735 14.917326 111.500864 14.917326 111.500864 13.3476832 119.062695 13.3476832 119.062695 14.917326 116.132664 14.917326"></polygon><polygon id="Fill-22" fill="#231F20" points="121.03799 13.3475991 126.709153 13.3475991 126.709153 14.9172419 122.738919 14.9172419 122.738919 17.2178704 126.573985 17.2178704 126.573985 18.786672 122.738919 18.786672 122.738919 21.5196673 126.843481 21.5196673 126.843481 23.0884688 121.03799 23.0884688"></polygon><path d="M134.868408,14.9174101 L134.868408,17.7849943 L136.73221,17.7849943 C137.798439,17.7849943 138.379408,17.2171975 138.379408,16.3516228 C138.379408,15.4860481 137.811872,14.9174101 136.811967,14.9174101 L134.868408,14.9174101 Z M134.868408,19.354637 L134.868408,23.0886371 L133.167479,23.0886371 L133.167479,13.3477674 L136.866538,13.3477674 C138.986403,13.3477674 140.188639,14.5792556 140.188639,16.3516228 C140.188639,18.12399 138.986403,19.354637 136.73221,19.354637 L134.868408,19.354637 Z" id="Fill-24" fill="#231F20"></path><path d="M143.945208,14.9174101 L143.945208,17.5006753 L145.646137,17.5006753 C146.619176,17.5006753 147.131302,16.9875552 147.131302,16.2161927 C147.131302,15.4313714 146.619176,14.9174101 145.727574,14.9174101 L143.945208,14.9174101 Z M143.945208,19.070318 L143.945208,23.0886371 L142.244279,23.0886371 L142.244279,13.3477674 L145.782144,13.3477674 C147.80714,13.3477674 148.940533,14.5245788 148.940533,16.2161927 C148.940533,17.3795453 148.427568,18.2182022 147.077571,18.7590812 L149.291465,23.0886371 L147.32104,23.0886371 L145.362369,19.070318 L143.945208,19.070318 Z" id="Fill-26" fill="#231F20"></path><path d="M155.85717,21.6 C157.666401,21.6 159.044103,20.0446573 159.044103,18.2176134 C159.044103,16.2971984 157.666401,14.8360679 155.85717,14.8360679 C154.047938,14.8360679 152.671076,16.2971984 152.671076,18.2176134 C152.671076,20.1397107 154.047938,21.6 155.85717,21.6 M155.85717,13.1856719 C158.678899,13.1856719 160.853334,15.3088114 160.853334,18.2176134 C160.853334,20.9909853 158.678899,23.2512372 155.85717,23.2512372 C153.03544,23.2512372 150.861844,21.1272566 150.861844,18.2176134 C150.861844,15.3088114 153.03544,13.1856719 155.85717,13.1856719" id="Fill-28" fill="#231F20"></path><path d="M164.745406,21.519499 L165.93337,21.519499 C167.972638,21.519499 169.214333,20.1391219 169.214333,18.2178657 C169.214333,16.2158563 167.972638,14.9170736 166.0274,14.9170736 L164.745406,14.9170736 L164.745406,21.519499 Z M163.044477,13.3474309 L166.108836,13.3474309 C169.025435,13.3474309 170.996699,15.2560694 170.996699,18.2178657 C170.996699,21.0181555 169.025435,23.0883006 166.0274,23.0883006 L163.044477,23.0883006 L163.044477,13.3474309 Z" id="Fill-30" fill="#231F20"></path><path d="M180.668152,13.3475991 L180.668152,19.5580344 C180.668152,21.8443629 179.304722,23.2508166 176.887657,23.2508166 C174.605759,23.2508166 173.107161,21.8443629 173.107161,19.5033577 L173.107161,13.3475991 L174.80893,13.3475991 L174.80893,19.4083043 C174.80893,20.8694348 175.672827,21.6004206 176.95566,21.6004206 C178.292225,21.6004206 179.075525,20.8694348 179.075525,19.4898988 L179.075525,13.3475991 L180.668152,13.3475991 Z" id="Fill-32" fill="#231F20"></path><path d="M182.77853,18.218034 C182.77853,15.309232 184.993265,13.1860925 187.773856,13.1860925 C190.042321,13.1860925 191.366292,14.3486039 192.027858,15.7828166 L190.488122,16.6492324 C189.907153,15.5666332 189.057528,14.8356474 187.773856,14.8356474 C185.964624,14.8356474 184.601194,16.297619 184.601194,18.218034 C184.601194,20.1392901 185.964624,21.6004206 187.773856,21.6004206 C189.164151,21.6004206 190.055754,20.8290581 190.568719,19.5706521 L192.175619,20.2335023 C191.595489,21.979793 190.123757,23.2508166 187.773856,23.2508166 C184.952127,23.2508166 182.77853,21.126836 182.77853,18.218034" id="Fill-34" fill="#231F20"></path><polygon id="Fill-36" fill="#231F20" points="198.188899 23.0885529 196.48797 23.0885529 196.48797 14.917326 193.557099 14.917326 193.557099 13.3476832 201.11893 13.3476832 201.11893 14.917326 198.188899 14.917326"></polygon></g></g></g></svg> 